<?xml version="1.0" standalone="no"?>
<!DOCTYPE svg PUBLIC "-//W3C//DTD SVG 20010904//EN"
 "http://www.w3.org/TR/2001/REC-SVG-20010904/DTD/svg10.dtd">
<svg version="1.0" xmlns="http://www.w3.org/2000/svg"
 width="1024.000000pt" height="1024.000000pt" viewBox="0 0 1024.000000 1024.000000"
 preserveAspectRatio="xMidYMid meet">

<g transform="translate(0.000000,1024.000000) scale(0.100000,-0.100000)"
fill="#000000" stroke="none">
<path d="M4880 9285 l0 -285 55 0 55 0 2 181 3 180 134 -180 134 -181 59 0 58
0 0 285 0 286 -57 -3 -58 -3 0 -177 c0 -98 -2 -178 -5 -177 -3 0 -65 81 -139
180 l-133 179 -54 0 -54 0 0 -285z"/>
<path d="M4630 9059 c-378 -61 -781 -216 -1086 -417 -551 -364 -977 -953
-1139 -1575 -32 -124 -56 -242 -70 -347 l-5 -45 50 0 50 0 6 45 c101 741 544
1434 1179 1846 129 83 370 203 515 256 134 49 360 110 475 128 119 19 110 13
110 70 0 56 5 53 -85 39z"/>
<path d="M5520 9022 l0 -49 53 -7 c165 -21 440 -100 636 -182 769 -323 1339
-981 1535 -1774 20 -80 42 -188 49 -240 l13 -95 51 -3 52 -3 -5 38 c-47 329
-127 595 -260 863 -242 487 -614 884 -1078 1150 -309 177 -683 308 -988 345
l-58 7 0 -50z"/>
<path d="M5117 8860 c-3 -8 -24 -132 -47 -275 -22 -143 -57 -357 -76 -475 -19
-118 -48 -303 -65 -410 -17 -107 -51 -304 -75 -438 -24 -134 -44 -247 -44
-252 0 -12 -379 260 -795 569 -170 127 -313 231 -317 231 -11 0 107 -180 289
-443 322 -460 479 -693 474 -699 -3 -3 -141 -29 -306 -58 -236 -40 -941 -164
-1377 -242 -32 -6 -58 -14 -58 -18 0 -20 126 -46 630 -130 293 -49 917 -157
1048 -182 37 -7 61 -16 58 -22 -6 -17 -358 -536 -455 -671 -130 -184 -301
-438 -297 -442 10 -10 150 90 718 515 207 155 379 282 382 282 3 0 6 -9 6 -20
0 -11 54 -332 120 -714 176 -1022 181 -1050 190 -1059 14 -15 88 391 229 1268
28 171 59 354 69 407 11 53 18 109 16 125 -3 26 -3 26 4 3 5 -16 69 -68 199
-161 106 -75 281 -203 390 -285 276 -207 506 -374 510 -371 5 6 -37 82 -46 82
-5 0 -222 215 -481 478 -260 263 -482 483 -493 488 -23 13 -39 -6 -45 -56 -2
-16 -6 -32 -9 -35 -3 -3 -4 10 -1 28 2 17 3 32 1 32 -2 0 -22 -12 -44 -26
-180 -113 -398 -113 -591 1 -90 53 -103 65 -156 147 -80 123 -109 248 -88 381
17 100 40 164 89 240 20 31 37 62 37 67 0 5 10 15 23 21 12 7 24 15 27 19 16
21 139 85 204 106 158 50 339 18 493 -87 23 -16 44 -29 46 -29 4 0 594 609
868 896 37 38 80 80 95 94 37 32 -80 -91 -565 -593 l-394 -408 24 -32 c103
-139 134 -223 133 -362 0 -55 -7 -113 -18 -150 -19 -64 -70 -162 -108 -207
l-23 -27 485 -489 c267 -269 487 -488 489 -486 4 3 -25 44 -299 434 -200 285
-387 560 -396 584 -7 18 1 20 171 50 746 131 1586 284 1592 289 2 2 -11 7 -29
10 -18 3 -204 35 -413 72 -531 92 -1037 182 -1189 211 -71 14 -134 23 -141 20
-7 -2 -26 -1 -42 5 -28 9 -28 9 4 4 32 -4 35 -2 115 118 45 67 193 282 328
477 277 399 370 536 370 545 0 4 -13 -3 -29 -14 -16 -12 -33 -21 -38 -21 -4 0
-58 -37 -119 -83 -574 -424 -920 -682 -926 -691 -10 -16 -11 -11 -73 374 -68
430 -219 1338 -238 1435 -8 39 -16 63 -20 55z m0 -1498 c-1 -251 -2 -43 -2
463 0 506 1 712 2 457 2 -255 2 -669 0 -920z m-1282 276 c28 -29 39 -44 25
-33 -29 23 -38 33 -64 63 -36 42 -10 22 39 -30z m620 -637 c143 -145 251 -258
239 -250 -19 13 -493 494 -693 704 -53 55 -31 35 49 -45 79 -80 262 -264 405
-409z m352 -43 c-3 -7 -5 -2 -5 12 0 14 2 19 5 13 2 -7 2 -19 0 -25z m652 -42
c1 -42 -5 -29 -12 24 -4 30 -3 38 3 25 5 -11 9 -33 9 -49z m-662 -23 c-3 -10
-5 -4 -5 12 0 17 2 24 5 18 2 -7 2 -21 0 -30z m-10 -55 c-3 -7 -5 -2 -5 12 0
14 2 19 5 13 2 -7 2 -19 0 -25z m686 -17 c4 -29 2 -40 -4 -30 -8 13 -14 88 -5
78 2 -2 6 -24 9 -48z m-696 -23 c-3 -8 -6 -5 -6 6 -1 11 2 17 5 13 3 -3 4 -12
1 -19z m-187 -98 c-41 -11 -82 -19 -90 -19 -24 1 112 37 140 37 14 0 -9 -8
-50 -18z m1017 -6 c-3 -3 -12 -4 -19 -1 -8 3 -5 6 6 6 11 1 17 -2 13 -5z m46
-11 c-7 -2 -19 -2 -25 0 -7 3 -2 5 12 5 14 0 19 -2 13 -5z m50 -10 c-7 -2 -19
-2 -25 0 -7 3 -2 5 12 5 14 0 19 -2 13 -5z m1130 -310 c-210 -2 -556 -2 -770
0 -213 1 -41 2 382 2 424 0 598 -1 388 -2z m540 0 c-13 -2 -33 -2 -45 0 -13 2
-3 4 22 4 25 0 35 -2 23 -4z m-4590 -20 c-7 -2 -19 -2 -25 0 -7 3 -2 5 12 5
14 0 19 -2 13 -5z m1350 0 c-237 -2 -629 -2 -870 0 -241 1 -46 2 432 2 479 0
676 -1 438 -2z m404 -329 c-3 -3 -12 -4 -19 -1 -8 3 -5 6 6 6 11 1 17 -2 13
-5z m40 -10 c-3 -3 -12 -4 -19 -1 -8 3 -5 6 6 6 11 1 17 -2 13 -5z m1183 -4
c-14 -4 -36 -8 -50 -8 -22 0 -22 1 5 8 17 4 39 8 50 8 16 0 15 -2 -5 -8z
m-1113 -16 c-3 -3 -12 -4 -19 -1 -8 3 -5 6 6 6 11 1 17 -2 13 -5z m1026 -1
c-7 -2 -19 -2 -25 0 -7 3 -2 5 12 5 14 0 19 -2 13 -5z m-986 -9 c-3 -3 -12 -4
-19 -1 -8 3 -5 6 6 6 11 1 17 -2 13 -5z m936 -1 c-7 -2 -19 -2 -25 0 -7 3 -2
5 12 5 14 0 19 -2 13 -5z m-46 -9 c-3 -3 -12 -4 -19 -1 -8 3 -5 6 6 6 11 1 17
-2 13 -5z m-858 -41 c-12 -17 -459 -471 -818 -833 l-164 -165 166 173 c182
190 820 840 826 841 2 1 -3 -7 -10 -16z m38 -60 c-3 -10 -5 -4 -5 12 0 17 2
24 5 18 2 -7 2 -21 0 -30z m10 -55 c-3 -7 -5 -2 -5 12 0 14 2 19 5 13 2 -7 2
-19 0 -25z m690 0 c-3 -7 -5 -2 -5 12 0 14 2 19 5 13 2 -7 2 -19 0 -25z m-680
-50 c-3 -7 -5 -2 -5 12 0 14 2 19 5 13 2 -7 2 -19 0 -25z m670 0 c-3 -7 -5 -2
-5 12 0 14 2 19 5 13 2 -7 2 -19 0 -25z m-320 -1356 c-1 -251 -2 -43 -2 463 0
506 1 712 2 457 2 -255 2 -669 0 -920z m-340 1316 c-3 -8 -6 -5 -6 6 -1 11 2
17 5 13 3 -3 4 -12 1 -19z"/>
<path d="M4864 8598 c3 -24 8 -69 11 -100 5 -42 11 -58 22 -58 12 0 14 12 8
78 -8 104 -13 122 -31 122 -12 0 -14 -9 -10 -42z"/>
<path d="M5346 8603 c-2 -16 -8 -58 -11 -94 -5 -54 -3 -67 9 -72 16 -6 17 0
31 136 5 47 4 57 -8 57 -9 0 -18 -12 -21 -27z"/>
<path d="M4724 8593 c3 -15 8 -55 12 -88 7 -69 15 -87 31 -77 8 5 8 29 -1 97
-9 73 -15 90 -30 93 -15 3 -17 -1 -12 -25z"/>
<path d="M5487 8612 c-3 -4 -8 -34 -11 -67 -4 -33 -10 -75 -13 -92 -4 -25 -2
-33 10 -33 16 0 22 19 32 105 4 28 9 57 11 66 5 16 -22 35 -29 21z"/>
<path d="M4591 8553 c4 -21 13 -64 19 -95 8 -39 16 -58 26 -58 17 0 17 -3 -2
103 -13 71 -19 87 -34 87 -16 0 -17 -5 -9 -37z"/>
<path d="M5610 8533 c-7 -32 -15 -75 -20 -95 -7 -33 -5 -38 10 -38 15 0 21 16
34 88 19 105 19 102 2 102 -10 0 -19 -20 -26 -57z"/>
<path d="M4454 8543 c3 -10 10 -38 16 -63 21 -85 32 -110 46 -110 10 0 14 6
10 18 -2 9 -12 52 -22 95 -14 63 -21 77 -37 77 -13 0 -17 -5 -13 -17z"/>
<path d="M5731 8475 c-25 -99 -25 -105 -7 -105 13 0 37 71 52 153 5 29 3 37
-9 37 -10 0 -21 -26 -36 -85z"/>
<path d="M4332 8521 c-10 -6 -6 -28 15 -97 31 -104 28 -98 47 -91 12 5 9 21
-15 98 -16 51 -30 93 -32 95 -1 2 -8 -1 -15 -5z"/>
<path d="M5857 8432 c-32 -104 -31 -102 -12 -102 9 0 23 28 40 83 29 95 30
107 12 107 -9 0 -24 -34 -40 -88z"/>
<path d="M4196 8471 c-4 -6 57 -177 68 -188 1 -1 7 1 14 6 9 5 7 20 -8 61 -45
121 -59 145 -74 121z"/>
<path d="M5980 8384 c-23 -62 -29 -89 -21 -97 14 -14 13 -16 50 81 35 95 36
102 17 102 -8 0 -27 -36 -46 -86z"/>
<path d="M4070 8409 c0 -11 68 -168 77 -178 2 -3 8 0 14 6 13 13 -59 183 -78
183 -7 0 -13 -5 -13 -11z"/>
<path d="M6137 8408 c-3 -7 -21 -48 -40 -90 -29 -62 -33 -77 -21 -82 11 -4 24
15 49 70 19 41 36 82 37 91 4 20 -18 29 -25 11z"/>
<path d="M3945 8351 c-9 -16 86 -180 101 -174 10 4 2 28 -31 94 -43 85 -57
101 -70 80z"/>
<path d="M6256 8337 c-45 -75 -77 -141 -72 -153 7 -19 23 -18 29 4 3 9 24 49
46 89 31 56 36 73 25 77 -8 3 -20 -4 -28 -17z"/>
<path d="M3826 8282 c-2 -4 18 -44 45 -89 34 -57 54 -80 64 -77 17 7 14 14
-47 112 -38 59 -51 71 -62 54z"/>
<path d="M6340 8212 c-48 -82 -51 -93 -34 -99 12 -4 116 162 106 171 -15 15
-30 -1 -72 -72z"/>
<path d="M1703 7475 l2 -795 57 0 58 0 0 795 0 795 -60 0 -60 0 3 -795z"/>
<path d="M3715 8209 c-7 -11 92 -169 106 -169 23 0 14 27 -33 99 -54 82 -62
89 -73 70z"/>
<path d="M6452 8139 c-40 -60 -51 -84 -42 -93 8 -8 13 -8 18 0 4 6 29 43 56
82 42 61 52 93 28 92 -4 0 -31 -37 -60 -81z"/>
<path d="M8645 8176 c-14 -20 -15 -109 -13 -750 3 -707 4 -728 22 -742 11 -8
27 -14 36 -14 9 0 25 6 36 14 18 14 19 35 22 742 3 803 5 774 -58 774 -20 0
-35 -8 -45 -24z"/>
<path d="M3607 8133 c-12 -11 -8 -19 52 -97 45 -58 61 -73 69 -63 8 10 -4 32
-49 90 -64 82 -62 80 -72 70z"/>
<path d="M6556 8058 c-44 -60 -56 -82 -46 -88 9 -6 30 15 71 70 33 42 59 79
59 82 0 3 -6 8 -13 11 -7 2 -37 -30 -71 -75z"/>
<path d="M3502 8038 c-12 -12 -7 -18 80 -117 29 -33 41 -42 50 -33 8 8 -4 29
-47 79 -32 37 -61 71 -65 76 -3 4 -11 2 -18 -5z"/>
<path d="M6661 7980 c-45 -51 -61 -75 -56 -88 6 -14 13 -10 47 28 73 83 92
110 81 121 -6 6 -31 -15 -72 -61z"/>
<path d="M3402 7937 c-9 -11 1 -26 52 -75 35 -34 68 -62 74 -62 28 0 16 22
-47 84 -55 55 -70 65 -79 53z"/>
<path d="M6751 7886 c-47 -48 -62 -69 -57 -82 6 -15 19 -6 76 51 39 38 69 74
67 79 -8 23 -26 12 -86 -48z"/>
<path d="M1460 7305 l0 -625 55 0 55 0 0 625 0 625 -55 0 -55 0 0 -625z"/>
<path d="M3311 7836 c-16 -20 124 -145 142 -127 9 10 6 17 -13 33 -14 11 -46
40 -71 64 -38 35 -49 41 -58 30z"/>
<path d="M6840 7781 c-50 -46 -70 -70 -62 -75 8 -5 39 14 83 49 81 67 83 69
66 83 -9 8 -32 -7 -87 -57z"/>
<path d="M8956 7834 c-14 -14 -16 -80 -16 -574 l0 -560 26 -17 c24 -15 29 -15
53 -2 l26 15 3 559 c2 509 1 560 -14 577 -21 22 -57 23 -78 2z"/>
<path d="M3214 7729 c-7 -12 4 -23 97 -89 45 -31 58 -37 63 -25 3 10 -19 32
-69 70 -41 30 -77 55 -79 55 -3 0 -8 -5 -12 -11z"/>
<path d="M6956 7699 c-27 -22 -61 -48 -75 -59 -20 -14 -23 -22 -15 -30 18 -18
169 97 153 116 -6 8 -12 14 -13 14 0 -1 -23 -19 -50 -41z"/>
<path d="M3137 7616 c-8 -21 150 -123 165 -108 7 7 10 13 7 15 -12 11 -159
107 -162 107 -3 0 -7 -6 -10 -14z"/>
<path d="M7013 7572 c-63 -42 -80 -58 -72 -68 8 -10 27 -1 87 38 42 28 79 52
80 54 2 1 0 9 -5 17 -6 11 -24 3 -90 -41z"/>
<path d="M9257 7572 c-15 -17 -17 -62 -17 -445 l0 -426 22 -15 c29 -21 51 -20
71 2 15 17 17 63 17 450 0 416 -1 432 -19 442 -29 15 -56 12 -74 -8z"/>
<path d="M1210 7130 l0 -450 60 0 60 0 0 450 0 450 -60 0 -60 0 0 -450z"/>
<path d="M3067 7503 c-14 -14 -5 -23 74 -68 58 -33 84 -44 92 -36 13 13 18 9
-75 65 -83 50 -81 49 -91 39z"/>
<path d="M7078 7461 c-56 -35 -74 -51 -68 -61 6 -10 26 -3 93 36 66 37 83 51
75 61 -14 17 -12 18 -100 -36z"/>
<path d="M3004 7375 c-8 -19 -14 -15 80 -59 54 -26 82 -34 89 -27 14 14 16 11
-81 60 -69 35 -83 39 -88 26z"/>
<path d="M7153 7347 c-46 -23 -83 -47 -83 -54 0 -7 4 -13 10 -13 7 0 126 54
168 77 2 1 0 8 -5 16 -7 12 -22 8 -90 -26z"/>
<path d="M970 6970 l0 -290 55 0 55 0 0 290 0 290 -55 0 -55 0 0 -290z"/>
<path d="M2945 7249 c-9 -14 -10 -13 79 -54 72 -33 102 -37 94 -14 -2 7 -153
79 -165 79 -1 0 -5 -5 -8 -11z"/>
<path d="M7206 7225 c-90 -40 -93 -42 -80 -55 15 -15 184 58 177 76 -7 19 -6
19 -97 -21z"/>
<path d="M2897 7123 c-15 -15 -3 -22 79 -52 99 -36 96 -36 92 -15 -2 9 -29 26
-63 39 -87 32 -101 36 -108 28z"/>
<path d="M7256 7100 c-89 -33 -94 -36 -80 -50 12 -12 186 49 181 63 -6 19 -20
17 -101 -13z"/>
<path d="M2847 6986 c-4 -10 14 -20 61 -34 110 -34 122 -36 122 -18 0 11 -25
23 -83 41 -97 29 -93 29 -100 11z"/>
<path d="M7365 6995 c-5 -2 -43 -13 -82 -25 -51 -14 -73 -26 -73 -37 0 -17 7
-16 123 18 43 13 67 25 67 34 0 14 -13 18 -35 10z"/>
<path d="M720 6819 l0 -139 55 0 55 0 0 138 0 139 -55 1 -55 0 0 -139z"/>
<path d="M2810 6853 c0 -16 14 -22 83 -36 98 -21 107 -21 107 -4 0 8 -28 20
-72 30 -40 10 -83 20 -95 23 -18 5 -23 2 -23 -13z"/>
<path d="M7330 6848 c-47 -11 -86 -21 -88 -23 -1 -1 0 -9 3 -17 5 -13 18 -12
96 7 49 12 90 24 89 28 0 4 0 12 0 17 0 12 5 13 -100 -12z"/>
<path d="M5007 6799 c-227 -53 -384 -291 -347 -526 22 -136 110 -267 225 -333
128 -73 297 -80 430 -17 201 96 309 307 264 519 -36 168 -184 319 -350 357
-53 13 -170 12 -222 0z m122 -132 c1 -5 -3 -5 -9 -2 -5 3 -10 16 -9 28 0 21 1
21 9 2 5 -11 9 -24 9 -28z m-22 -29 c-3 -8 -6 -5 -6 6 -1 11 2 17 5 13 3 -3 4
-12 1 -19z m30 -20 c-3 -8 -6 -5 -6 6 -1 11 2 17 5 13 3 -3 4 -12 1 -19z m-50
-50 c-3 -8 -6 -5 -6 6 -1 11 2 17 5 13 3 -3 4 -12 1 -19z m60 0 c-3 -8 -6 -5
-6 6 -1 11 2 17 5 13 3 -3 4 -12 1 -19z m177 -3 c-9 -14 -19 -23 -22 -21 -2 3
-19 -4 -36 -16 -41 -28 -21 -7 29 31 49 37 50 37 29 6z m-314 -72 c0 -2 -14 6
-32 18 -26 19 -30 20 -25 6 10 -28 1 -20 -27 24 l-27 41 55 -42 c31 -23 56
-44 56 -47z m147 25 c-3 -7 -5 -2 -5 12 0 14 2 19 5 13 2 -7 2 -19 0 -25z
m128 -15 c-34 -53 -45 -67 -45 -60 0 10 51 87 57 87 3 0 -3 -12 -12 -27z
m-218 -15 c-3 -8 -6 -5 -6 6 -1 11 2 17 5 13 3 -3 4 -12 1 -19z m153 7 c-7 -8
-17 -15 -23 -15 -6 0 -2 7 9 15 25 19 30 19 14 0z m-230 -36 c15 -28 5 -23
-15 7 -9 15 -12 23 -6 20 6 -4 16 -16 21 -27z m297 -55 c-3 -3 -12 -4 -19 -1
-8 3 -5 6 6 6 11 1 17 -2 13 -5z m-320 -20 c-3 -3 -12 -4 -19 -1 -8 3 -5 6 6
6 11 1 17 -2 13 -5z m-40 -10 c-3 -3 -12 -4 -19 -1 -8 3 -5 6 6 6 11 1 17 -2
13 -5z m-40 -10 c-3 -3 -12 -4 -19 -1 -8 3 -5 6 6 6 11 1 17 -2 13 -5z m-52
-12 l-20 -5 20 -9 c17 -7 16 -8 -5 -3 -14 2 -36 5 -50 6 -20 1 -18 3 10 9 40
8 75 10 45 2z m606 -14 c-18 -5 -36 -7 -39 -4 -3 3 2 6 12 6 9 0 15 4 12 9 -3
4 7 6 22 3 l27 -6 -34 -8z m-554 -14 c-3 -3 -12 -4 -19 -1 -8 3 -5 6 6 6 11 1
17 -2 13 -5z m40 -10 c-3 -3 -12 -4 -19 -1 -8 3 -5 6 6 6 11 1 17 -2 13 -5z
m430 0 c-3 -3 -12 -4 -19 -1 -8 3 -5 6 6 6 11 1 17 -2 13 -5z m-390 -10 c-3
-3 -12 -4 -19 -1 -8 3 -5 6 6 6 11 1 17 -2 13 -5z m294 -71 c13 -16 12 -17 -3
-4 -10 7 -18 15 -18 17 0 8 8 3 21 -13z m-184 -25 c-3 -8 -6 -5 -6 6 -1 11 2
17 5 13 3 -3 4 -12 1 -19z m215 -32 c3 2 13 -8 22 -23 l17 -28 -20 24 c-12 13
-21 20 -21 17 0 -4 -20 7 -45 24 -25 17 -45 33 -45 36 0 3 20 -9 44 -25 24
-17 46 -28 48 -25z m-282 31 c-24 -22 -126 -92 -114 -78 13 14 116 90 124 91
2 0 -2 -6 -10 -13z m157 -9 c-3 -8 -6 -5 -6 6 -1 11 2 17 5 13 3 -3 4 -12 1
-19z m-80 -40 c-3 -8 -6 -5 -6 6 -1 11 2 17 5 13 3 -3 4 -12 1 -19z m70 0 c-3
-8 -6 -5 -6 6 -1 11 2 17 5 13 3 -3 4 -12 1 -19z m-10 -40 c-3 -8 -6 -5 -6 6
-1 11 2 17 5 13 3 -3 4 -12 1 -19z m-50 -10 c-3 -8 -6 -5 -6 6 -1 11 2 17 5
13 3 -3 4 -12 1 -19z m40 -30 c-3 -8 -6 -5 -6 6 -1 11 2 17 5 13 3 -3 4 -12 1
-19z m-30 -10 c-3 -8 -6 -5 -6 6 -1 11 2 17 5 13 3 -3 4 -12 1 -19z m14 -49
c-6 -24 -9 -28 -10 -12 -1 24 9 56 16 50 2 -3 0 -20 -6 -38z"/>
<path d="M7360 6720 c-67 -13 -86 -20 -88 -34 -3 -15 1 -18 20 -13 12 3 56 11
96 18 45 8 72 17 72 25 0 21 -11 21 -100 4z"/>
<path d="M2780 6716 c0 -20 180 -52 191 -34 4 7 7 14 5 15 -4 4 -160 33 -178
33 -10 0 -18 -6 -18 -14z"/>
<path d="M7770 6320 l0 -240 170 0 170 0 0 45 0 45 -125 0 -125 0 0 50 0 50
105 0 105 0 0 45 0 45 -105 0 -105 0 0 55 0 55 126 0 125 0 -3 43 -3 42 -167
3 -168 2 0 -240z"/>
<path d="M2065 6373 c29 -98 60 -204 69 -235 l17 -58 47 0 47 0 24 85 c13 46
33 116 45 156 l22 72 44 -157 43 -156 46 0 47 0 63 218 c35 119 66 225 69 235
4 15 -3 17 -49 17 l-54 0 -39 -163 c-22 -89 -40 -157 -42 -152 -2 6 -22 79
-45 163 l-41 152 -47 0 -46 0 -34 -128 c-19 -70 -39 -143 -44 -162 -9 -33 -11
-29 -39 90 -51 220 -40 200 -102 200 l-53 0 52 -177z"/>
<path d="M730 6325 l0 -25 535 0 535 0 0 25 0 25 -535 0 -535 0 0 -25z"/>
<path d="M8544 6325 l0 -25 433 0 433 0 0 25 0 25 -433 0 -433 0 0 -25z"/>
<path d="M7275 6012 c-19 -19 3 -30 78 -40 104 -15 107 -15 107 3 0 8 -13 16
-32 20 -91 15 -148 21 -153 17z"/>
<path d="M2853 5998 c-46 -7 -63 -14 -63 -25 0 -13 10 -15 63 -9 99 11 128 18
124 30 -5 15 -48 16 -124 4z"/>
<path d="M2346 5913 c63 -448 276 -932 572 -1303 407 -508 1009 -874 1642
-998 165 -33 151 -35 154 25 l1 51 -50 7 c-82 10 -282 61 -410 103 -382 126
-768 366 -1065 662 -390 389 -653 896 -740 1428 l-12 72 -50 0 -49 0 7 -47z"/>
<path d="M7790 5920 c0 -51 -49 -264 -91 -394 -133 -419 -340 -759 -648 -1066
-149 -148 -251 -231 -423 -346 -331 -220 -629 -338 -1085 -430 -20 -4 -23 -11
-23 -55 l0 -50 48 7 c95 14 390 93 515 138 914 333 1588 1101 1780 2031 14 66
28 137 31 158 l7 37 -56 0 c-54 0 -55 0 -55 -30z"/>
<path d="M8804 5886 c-70 -31 -102 -137 -60 -200 17 -27 17 -27 -20 -69 -138
-155 -141 -158 -169 -147 -68 26 -144 -4 -177 -70 -34 -68 -13 -144 52 -188
35 -24 80 -26 145 -8 15 4 38 -12 93 -62 l73 -68 -16 -37 c-19 -46 -19 -90 0
-127 15 -28 14 -29 -52 -102 -37 -40 -70 -73 -73 -72 -3 0 -22 4 -43 8 -80 17
-144 -23 -168 -105 -15 -50 9 -119 53 -150 94 -67 228 -2 228 109 0 26 -6 59
-14 73 -13 25 -10 29 54 101 54 60 70 73 86 67 63 -25 150 5 179 61 19 38 19
103 -1 141 -15 30 -14 31 22 72 20 23 68 75 107 115 70 72 70 73 104 61 44
-14 95 -4 131 26 83 69 64 199 -35 241 -43 19 -72 18 -115 -4 l-36 -19 -80 71
c-75 66 -80 73 -74 101 11 50 5 106 -15 134 -40 54 -116 74 -179 47z m234
-322 c45 -42 79 -80 76 -85 -10 -17 -6 -96 6 -119 10 -19 1 -32 -97 -138 -59
-64 -110 -117 -113 -116 -3 0 -18 4 -34 8 -16 5 -42 5 -60 -1 -30 -9 -35 -7
-109 62 -74 68 -77 73 -67 99 14 38 13 92 -4 124 -14 26 -12 29 76 127 l91
100 56 -3 c31 -1 63 2 71 8 8 5 17 10 20 10 3 0 42 -34 88 -76z"/>
<path d="M7244 5878 c-11 -17 8 -25 90 -42 96 -20 106 -20 106 -2 0 10 -20 19
-57 26 -32 7 -75 15 -96 20 -22 5 -39 4 -43 -2z"/>
<path d="M1593 5860 c-18 -10 -39 -33 -48 -49 -19 -37 -20 -111 -1 -136 13
-18 6 -28 -87 -128 -56 -60 -114 -123 -129 -141 l-27 -31 -57 56 c-55 56 -56
57 -40 80 22 33 20 95 -5 136 -65 105 -232 71 -255 -53 -9 -46 26 -115 70
-139 25 -14 46 -17 88 -12 l55 5 53 -53 c36 -36 50 -57 44 -67 -4 -7 -48 -57
-97 -110 l-89 -97 -47 5 c-57 6 -106 -17 -138 -65 -60 -90 7 -211 116 -211
110 0 173 103 125 204 l-17 34 99 106 98 106 124 -122 c98 -98 122 -127 116
-143 -15 -49 -15 -75 2 -110 17 -37 61 -65 102 -65 34 0 86 44 100 84 10 33
10 43 -6 79 -26 59 -46 72 -107 71 l-53 -2 -122 123 -123 123 113 124 c62 68
120 131 129 140 14 15 21 16 47 7 72 -28 165 30 179 110 19 114 -113 202 -212
141z"/>
<path d="M2895 5869 c-22 -5 -50 -11 -62 -14 -13 -3 -23 -12 -23 -20 0 -18 -3
-19 98 1 54 11 82 21 82 30 0 16 -34 17 -95 3z"/>
<path d="M2913 5738 c-45 -13 -73 -26 -73 -35 0 -15 25 -17 66 -3 16 5 48 14
72 20 25 6 42 17 42 25 0 19 -19 18 -107 -7z"/>
<path d="M7220 5747 c0 -8 35 -23 90 -39 83 -23 90 -24 90 -8 0 14 -18 23 -78
39 -92 25 -102 25 -102 8z"/>
<path d="M7183 5634 c-7 -19 -11 -17 86 -49 68 -23 85 -25 92 -14 5 9 4 16 -4
18 -7 2 -47 17 -90 32 -65 22 -79 24 -84 13z"/>
<path d="M2953 5613 c-41 -15 -73 -32 -73 -40 0 -18 14 -17 102 13 49 16 78
31 78 40 0 20 -24 17 -107 -13z"/>
<path d="M3025 5499 c-109 -45 -105 -43 -96 -58 8 -12 24 -8 93 19 99 40 92
35 81 53 -7 12 -20 9 -78 -14z"/>
<path d="M7135 5513 c-7 -19 -16 -13 83 -53 62 -24 86 -30 94 -22 15 15 16 15
-84 55 -73 30 -88 33 -93 20z"/>
<path d="M3058 5370 c-56 -29 -76 -44 -72 -55 4 -8 8 -15 10 -15 20 0 164 83
164 95 0 22 -17 18 -102 -25z"/>
<path d="M7083 5394 c-3 -8 -4 -16 -2 -17 2 -1 40 -19 83 -40 55 -27 82 -35
89 -28 15 15 6 21 -86 64 -65 30 -79 34 -84 21z"/>
<path d="M3133 5256 c-85 -49 -87 -51 -78 -66 4 -7 29 2 73 26 80 44 100 60
87 73 -6 6 -37 -7 -82 -33z"/>
<path d="M7021 5287 c-8 -10 8 -24 71 -61 73 -42 108 -52 108 -28 0 4 -19 18
-42 29 -24 12 -62 33 -84 47 -34 21 -44 23 -53 13z"/>
<path d="M3200 5145 c-35 -25 -69 -46 -74 -48 -6 -2 -6 -9 0 -20 8 -14 20 -9
90 36 44 29 79 58 76 65 -6 20 -23 13 -92 -33z"/>
<path d="M6954 5179 c-8 -13 -6 -15 80 -73 62 -42 86 -49 86 -27 0 8 -143 111
-154 111 -2 0 -8 -5 -12 -11z"/>
<path d="M3281 5040 c-84 -65 -87 -68 -75 -80 11 -11 159 93 159 112 0 24 -22
15 -84 -32z"/>
<path d="M6880 5075 c-9 -11 5 -26 64 -70 68 -50 96 -60 96 -36 0 4 -34 33
-75 63 -60 45 -76 54 -85 43z"/>
<path d="M3357 4931 c-37 -32 -70 -61 -73 -63 -2 -3 1 -10 9 -16 10 -8 29 3
82 49 39 33 70 65 70 71 0 25 -24 14 -88 -41z"/>
<path d="M6797 4976 c-9 -23 131 -140 149 -125 10 8 -1 22 -49 61 -34 28 -69
57 -78 65 -14 12 -17 12 -22 -1z"/>
<path d="M3447 4833 c-66 -64 -75 -77 -59 -87 11 -6 142 115 142 131 0 28 -19
18 -83 -44z"/>
<path d="M6713 4879 c-13 -13 121 -144 136 -134 19 11 13 19 -58 82 -45 41
-72 58 -78 52z"/>
<path d="M3537 4737 c-49 -55 -63 -77 -55 -85 9 -9 26 4 67 50 67 73 76 87 64
99 -6 6 -34 -18 -76 -64z"/>
<path d="M6615 4790 c-7 -11 114 -150 131 -150 27 0 18 18 -44 86 -68 76 -76
82 -87 64z"/>
<path d="M3636 4650 c-32 -39 -54 -75 -51 -81 10 -16 19 -9 79 65 50 61 61 86
37 86 -5 0 -34 -32 -65 -70z"/>
<path d="M6523 4702 c-13 -8 98 -145 122 -150 27 -6 15 19 -42 89 -60 72 -61
73 -80 61z"/>
<path d="M3736 4565 c-31 -41 -56 -76 -56 -79 0 -2 6 -6 14 -9 17 -7 130 138
121 153 -12 19 -23 10 -79 -65z"/>
<path d="M6424 4626 c-3 -8 19 -48 52 -90 45 -60 59 -74 70 -65 11 9 2 26 -47
90 -34 43 -63 79 -66 79 -2 0 -6 -6 -9 -14z"/>
<path d="M1000 4590 c-41 -41 -12 -120 45 -120 30 0 75 41 75 68 0 59 -79 93
-120 52z"/>
<path d="M1590 4583 c-25 -32 -20 -69 12 -95 44 -38 108 -7 108 52 0 66 -79
94 -120 43z"/>
<path d="M3847 4494 c-26 -42 -46 -83 -43 -91 9 -22 21 -9 71 73 40 67 48 94
27 94 -4 0 -29 -34 -55 -76z"/>
<path d="M6316 4552 c-3 -5 16 -40 41 -78 58 -88 61 -90 73 -78 7 7 -5 35 -40
87 -47 73 -62 87 -74 69z"/>
<path d="M3958 4414 c-38 -68 -44 -86 -32 -91 18 -7 12 -15 66 84 37 65 43 83
31 87 -8 3 -15 6 -17 6 -1 0 -22 -38 -48 -86z"/>
<path d="M6212 4488 c-8 -8 -2 -26 21 -67 58 -105 62 -110 76 -102 10 7 5 24
-25 77 -55 100 -59 105 -72 92z"/>
<path d="M4078 4354 c-31 -63 -38 -88 -30 -96 15 -15 12 -18 60 84 32 70 37
88 26 92 -11 4 -27 -18 -56 -80z"/>
<path d="M6090 4421 c0 -8 68 -163 75 -170 2 -2 11 -1 20 2 13 5 8 21 -27 92
-23 47 -48 85 -55 85 -7 0 -13 -4 -13 -9z"/>
<path d="M4198 4293 c-27 -64 -34 -89 -25 -95 16 -10 20 -4 56 81 34 80 38
101 18 101 -7 0 -29 -39 -49 -87z"/>
<path d="M5974 4366 c-8 -20 60 -171 77 -171 18 0 15 14 -24 107 -32 78 -43
91 -53 64z"/>
<path d="M4355 4327 c-2 -6 -16 -43 -30 -81 -28 -78 -31 -96 -11 -96 8 0 25
36 44 89 25 74 28 91 16 95 -8 3 -17 0 -19 -7z"/>
<path d="M5850 4313 c0 -5 12 -45 27 -90 22 -65 32 -83 46 -83 13 0 17 5 14
14 -3 8 -18 49 -33 90 -15 45 -32 76 -40 76 -8 0 -14 -3 -14 -7z"/>
<path d="M4460 4232 c-25 -81 -29 -123 -14 -129 7 -2 20 29 34 78 12 45 24 88
26 94 3 7 -2 15 -10 18 -12 5 -20 -9 -36 -61z"/>
<path d="M940 4265 l0 -25 400 0 400 0 0 25 0 25 -400 0 -400 0 0 -25z"/>
<path d="M5741 4213 c11 -38 22 -81 26 -96 4 -19 10 -26 20 -23 8 4 16 6 18 6
1 0 -9 40 -24 90 -19 67 -30 90 -43 90 -15 0 -15 -5 3 -67z"/>
<path d="M4581 4171 c-25 -105 -25 -101 -7 -101 16 0 18 6 41 103 18 83 19 87
1 87 -10 0 -21 -29 -35 -89z"/>
<path d="M5600 4244 c0 -4 9 -46 21 -95 14 -60 25 -89 35 -89 18 0 17 4 -1 87
-23 97 -25 103 -41 103 -8 0 -14 -3 -14 -6z"/>
<path d="M4721 4192 c-22 -103 -25 -152 -9 -152 11 0 18 20 27 73 7 39 14 82
17 93 4 13 0 23 -10 27 -11 4 -17 -6 -25 -41z"/>
<path d="M5478 4223 c-3 -4 2 -50 10 -100 10 -66 18 -93 28 -93 17 0 17 20 1
119 -11 66 -27 97 -39 74z"/>
<path d="M4857 4198 c-3 -13 -9 -58 -13 -100 -6 -66 -4 -78 8 -78 11 0 17 16
22 63 4 34 10 79 13 100 4 29 2 37 -10 37 -8 0 -17 -10 -20 -22z"/>
<path d="M5344 4183 c3 -16 8 -61 11 -100 6 -56 11 -73 22 -73 13 0 15 11 10
68 -4 37 -7 82 -7 100 0 26 -4 32 -21 32 -17 0 -20 -5 -15 -27z"/>
<path d="M5042 3725 c-76 -24 -112 -72 -112 -152 0 -87 45 -131 172 -168 65
-19 108 -48 108 -75 0 -54 -111 -67 -199 -24 -28 15 -53 25 -55 23 -1 -2 -13
-19 -26 -38 l-24 -34 30 -24 c39 -31 115 -53 186 -53 134 0 212 78 193 192
-11 61 -58 101 -157 133 -46 15 -91 34 -100 43 -23 20 -23 55 0 75 29 26 80
21 172 -16 10 -5 24 6 43 33 l28 39 -26 17 c-28 18 -126 44 -165 43 -14 0 -44
-6 -68 -14z"/>
<path d="M6074 2895 c-297 -64 -448 -378 -315 -655 31 -67 118 -155 187 -192
143 -77 336 -77 477 0 70 38 151 123 187 196 113 228 16 507 -213 615 -109 51
-205 62 -323 36z m228 -163 c61 -27 124 -95 149 -162 30 -78 24 -204 -14 -276
-65 -128 -212 -185 -353 -137 -68 23 -145 101 -170 173 -23 68 -23 177 0 239
32 87 111 158 201 182 46 12 138 3 187 -19z"/>
<path d="M830 2810 l0 -80 130 0 130 0 0 -357 0 -358 85 0 85 0 0 357 0 357
133 3 132 3 3 78 3 77 -351 0 -350 0 0 -80z"/>
<path d="M1720 2454 l0 -439 85 0 85 0 0 163 0 162 53 0 53 0 102 -162 101
-162 106 0 c58 -1 105 0 105 1 0 1 -54 79 -120 175 l-120 173 50 24 c61 28
115 87 129 138 30 107 -2 234 -72 287 -78 59 -123 69 -349 74 l-208 4 0 -438z
m421 250 c58 -58 47 -167 -20 -207 -22 -13 -53 -17 -130 -17 l-101 0 0 131 0
131 110 -4 c108 -3 110 -4 141 -34z"/>
<path d="M2575 2578 c2 -172 8 -327 13 -343 35 -111 117 -194 224 -226 57 -18
87 -21 159 -17 152 9 249 71 308 198 l26 55 3 323 3 322 -85 0 -86 0 0 -275
c0 -161 -5 -295 -11 -325 -13 -59 -57 -116 -106 -136 -68 -29 -181 -7 -225 42
-45 51 -48 78 -48 394 l0 300 -90 0 -89 0 4 -312z"/>
<path d="M3570 2453 l0 -438 287 2 288 3 0 72 0 73 -202 3 -203 2 0 100 0 100
178 2 177 3 0 72 0 73 -175 3 -175 4 -3 101 -3 102 198 2 198 3 3 78 3 77
-286 0 -285 0 0 -437z"/>
<path d="M4732 2454 l3 -436 80 0 80 0 5 281 5 282 221 -283 222 -283 71 0 71
0 0 438 0 437 -80 0 -80 0 -2 -284 -3 -285 -223 285 -223 284 -75 0 -74 0 2
-436z"/>
<path d="M6880 2453 l0 -438 85 0 85 0 0 163 0 163 52 -3 53 -3 97 -155 96
-155 109 -6 c59 -3 109 -5 110 -5 1 1 -52 80 -117 176 l-120 174 46 22 c99 48
143 117 144 225 0 111 -34 177 -116 225 -74 43 -140 54 -341 54 l-183 0 0
-437z m390 272 c48 -25 70 -62 70 -116 0 -42 -5 -55 -34 -87 l-34 -37 -111 -3
-111 -4 0 131 0 131 95 0 c65 0 105 -5 125 -15z"/>
<path d="M7690 2810 l0 -80 130 0 130 0 0 -359 0 -358 85 3 86 3 -1 355 0 355
131 3 132 3 1 78 2 77 -348 0 -348 0 0 -80z"/>
<path d="M8587 2454 l3 -436 82 0 83 0 3 181 2 181 200 0 200 0 0 -182 0 -183
85 0 85 0 0 438 0 437 -85 0 -85 0 0 -180 0 -180 -200 0 -200 0 0 180 0 180
-87 0 -88 0 2 -436z"/>
<path d="M4083 1700 c-80 -25 -112 -133 -55 -189 15 -15 52 -36 82 -46 62 -20
90 -40 90 -65 0 -46 -82 -58 -144 -22 l-35 21 -21 -28 c-15 -22 -17 -31 -7
-39 61 -48 171 -60 230 -23 65 40 74 136 17 184 -16 14 -53 33 -82 42 -68 22
-80 32 -76 64 3 23 8 26 45 29 24 2 55 -3 71 -12 28 -14 30 -14 51 15 13 17
21 32 19 34 -37 32 -134 50 -185 35z"/>
<path d="M6805 1691 c-72 -32 -125 -113 -125 -191 0 -78 53 -159 125 -191 55
-25 157 -25 213 1 l43 19 -3 88 -3 88 -74 3 c-41 2 -79 1 -86 -1 -7 -3 -10
-19 -7 -41 4 -35 5 -36 48 -36 42 0 44 -1 44 -30 0 -36 -16 -45 -82 -44 -80 1
-138 60 -138 142 0 112 107 177 199 121 l33 -20 25 23 24 23 -25 22 c-52 44
-144 55 -211 24z"/>
<path d="M8045 1696 c-50 -22 -70 -52 -70 -106 0 -59 34 -100 98 -120 70 -20
97 -38 97 -63 0 -13 -5 -28 -12 -35 -19 -19 -89 -14 -127 9 l-35 21 -18 -24
c-26 -34 -23 -44 25 -67 89 -43 213 -19 237 45 30 77 -4 137 -97 174 -74 29
-102 54 -87 78 20 32 58 37 103 15 l41 -21 22 31 c21 29 21 30 3 43 -45 33
-129 42 -180 20z"/>
<path d="M1932 1498 l3 -203 83 -3 c117 -4 178 15 230 72 91 99 61 255 -61
312 -44 20 -67 24 -155 24 l-102 0 2 -202z m223 116 c46 -22 69 -60 69 -115 0
-87 -59 -139 -156 -139 l-58 0 0 135 0 135 56 0 c31 0 71 -7 89 -16z"/>
<path d="M2560 1673 c-7 -16 -48 -108 -91 -205 l-78 -178 40 0 c37 0 41 3 58
41 l19 41 92 0 92 0 19 -41 c17 -38 21 -41 58 -41 l39 0 -55 128 c-30 70 -69
162 -86 205 -30 73 -34 77 -63 77 -24 0 -34 -6 -44 -27z m70 -150 c14 -37 27
-71 28 -75 2 -5 -25 -8 -61 -8 l-65 0 31 75 c17 41 34 75 37 75 3 0 16 -30 30
-67z"/>
<path d="M2880 1665 l0 -35 60 0 60 0 0 -171 0 -170 38 3 37 3 0 168 0 167 63
0 62 0 0 35 0 35 -160 0 -160 0 0 -35z"/>
<path d="M3330 1504 c-47 -108 -86 -200 -88 -205 -2 -5 15 -9 37 -9 38 0 41 3
58 41 l18 41 90 0 90 0 18 -41 c17 -38 20 -41 58 -41 29 0 40 4 36 13 -3 6
-42 99 -87 205 -82 192 -82 192 -114 192 -31 0 -31 -2 -116 -196z m149 8 l30
-72 -64 0 -65 0 21 53 c12 28 25 63 30 76 5 13 12 22 14 19 3 -2 18 -37 34
-76z"/>
<path d="M4410 1665 l0 -35 60 0 60 0 0 -170 0 -170 40 0 40 0 0 170 0 170 60
0 60 0 0 35 0 35 -160 0 -160 0 0 -35z"/>
<path d="M4880 1496 l0 -206 40 0 40 0 0 80 0 80 28 0 c23 0 34 -12 77 -80 49
-80 50 -80 92 -80 24 0 43 2 43 5 0 3 -22 39 -50 80 -27 41 -50 76 -50 79 0 2
16 20 35 39 28 28 35 43 35 76 0 98 -37 124 -182 129 l-108 4 0 -206z m204
112 c22 -31 20 -45 -9 -73 -18 -19 -35 -25 -70 -25 l-45 0 0 60 0 60 54 0 c45
0 58 -4 70 -22z"/>
<path d="M5407 1501 c-48 -109 -87 -201 -87 -205 0 -3 17 -6 38 -6 36 0 41 3
57 39 l17 40 91 3 90 3 18 -42 c17 -40 21 -43 58 -43 l40 0 -53 128 c-130 311
-114 282 -150 282 l-32 0 -87 -199z m151 12 l30 -73 -64 0 c-35 0 -64 2 -64 4
0 2 7 20 15 40 8 20 22 52 30 73 8 20 17 34 19 32 2 -2 17 -37 34 -76z"/>
<path d="M5790 1665 l0 -35 60 0 60 0 0 -170 0 -170 35 0 35 0 0 170 0 170 59
0 59 0 4 35 4 35 -158 0 -158 0 0 -35z"/>
<path d="M6260 1495 l0 -205 130 0 130 0 0 35 0 35 -95 0 -95 0 0 50 0 49 83
3 82 3 3 33 3 32 -85 0 -86 0 0 50 0 50 95 0 95 0 0 35 0 35 -130 0 -130 0 0
-205z"/>
<path d="M7250 1495 l0 -205 40 0 40 0 0 205 0 205 -40 0 -40 0 0 -205z"/>
<path d="M7530 1495 l0 -205 135 0 135 0 0 35 0 34 -96 3 -97 3 -1 48 -1 47
83 0 82 0 0 35 0 34 -81 3 -82 3 -1 48 -1 47 93 0 92 0 0 35 0 35 -130 0 -130
0 0 -205z"/>
<path d="M830 1508 l0 -28 415 0 415 0 0 25 0 25 -415 2 -415 3 0 -27z"/>
<path d="M8963 1533 l-413 -3 0 -25 0 -25 415 0 415 0 0 30 c0 17 -1 29 -2 28
-2 -2 -189 -4 -415 -5z"/>
<path d="M1420 953 c0 -20 5 -23 41 -23 l40 0 -3 -110 -3 -110 25 0 25 0 -1
110 -1 110 38 0 c34 0 39 3 39 23 0 21 -3 22 -100 22 -97 0 -100 -1 -100 -22z"/>
<path d="M1732 972 c-23 -4 -24 -5 -20 -102 2 -81 7 -104 24 -127 28 -37 73
-49 124 -34 57 17 70 48 70 168 0 97 0 98 -25 99 l-25 2 0 -95 c0 -113 -8
-133 -54 -133 -50 0 -60 20 -66 129 -5 94 -6 96 -28 93z"/>
<path d="M2040 844 l0 -134 25 0 c23 0 25 3 25 50 0 43 3 50 19 50 12 0 30
-18 50 -50 26 -42 36 -50 61 -50 l31 0 -35 52 -35 51 24 23 c33 31 34 82 1
113 -19 18 -37 23 -95 25 l-71 3 0 -133z m134 64 c17 -27 -5 -52 -48 -56 l-36
-3 0 41 0 41 36 -3 c22 -2 42 -10 48 -20z"/>
<path d="M2340 843 l0 -133 26 0 25 0 -3 85 c-2 47 -1 85 2 85 3 -1 33 -39 68
-85 49 -67 68 -85 87 -85 l25 0 0 133 c0 132 0 134 -22 133 -22 -1 -23 -6 -28
-89 l-5 -88 -66 88 c-47 64 -72 89 -88 89 -20 0 -21 -4 -21 -133z"/>
<path d="M2680 843 l0 -133 25 0 25 0 0 133 0 132 -25 0 -25 0 0 -132z"/>
<path d="M2840 843 l0 -133 25 0 c24 0 24 2 27 86 l3 85 63 -85 c49 -67 69
-86 88 -86 l24 0 0 133 0 132 -25 1 c-25 2 -25 2 -25 -88 l0 -89 -66 88 c-51
68 -71 88 -90 88 l-24 0 0 -132z"/>
<path d="M3233 959 c-81 -52 -81 -181 2 -235 39 -25 100 -29 145 -9 40 18 40
18 40 77 l0 58 -55 0 c-52 0 -55 -1 -55 -25 0 -21 5 -25 28 -25 24 0 28 -4 27
-22 -1 -20 -8 -23 -44 -26 -34 -3 -49 2 -67 19 -50 47 -36 133 26 159 27 11
37 11 67 -4 27 -13 38 -14 49 -5 21 17 17 25 -20 43 -46 22 -104 20 -143 -5z"/>
<path d="M3680 975 c0 0 -2 -60 -3 -133 l-2 -132 70 0 c52 0 78 5 102 20 71
43 84 144 25 203 -28 27 -39 31 -111 36 -45 4 -81 6 -81 6z m151 -74 c39 -40
39 -82 -1 -122 -24 -25 -37 -30 -67 -27 l-37 3 -2 80 c-1 44 0 83 2 87 3 5 21
8 40 8 26 0 44 -8 65 -29z"/>
<path d="M4274 971 c-2 -2 -4 -13 -4 -23 0 -14 8 -18 40 -18 l40 0 0 -110 0
-110 25 0 25 0 0 110 0 110 40 0 c35 0 40 3 40 23 0 21 -3 22 -101 22 -55 0
-103 -2 -105 -4z"/>
<path d="M4600 935 c-11 -25 -29 -65 -40 -90 -11 -25 -29 -65 -40 -90 l-19
-45 29 0 c23 0 31 5 36 25 6 23 10 25 68 25 57 0 64 -2 74 -25 8 -17 20 -25
37 -25 l25 0 -19 48 c-66 163 -87 205 -109 213 -20 8 -25 4 -42 -36z m61 -85
l18 -40 -39 0 c-22 0 -40 2 -40 5 0 14 33 85 38 81 3 -3 13 -24 23 -46z"/>
<path d="M5000 843 l0 -133 25 0 25 0 0 133 0 132 -25 0 -25 0 0 -132z"/>
<path d="M5160 843 l0 -133 25 0 c24 0 24 2 27 87 l3 87 65 -87 c48 -65 70
-87 87 -87 23 0 23 1 23 133 0 132 0 134 -22 132 -22 -2 -23 -6 -23 -88 0 -48
-2 -87 -5 -86 -3 0 -34 39 -68 87 -50 68 -69 87 -88 87 l-24 0 0 -132z"/>
<path d="M5480 953 c0 -20 5 -23 40 -23 l40 0 0 -110 0 -110 25 0 25 0 0 110
0 110 40 0 c35 0 40 3 40 23 0 21 -3 22 -105 22 -102 0 -105 -1 -105 -22z"/>
<path d="M5813 960 c-45 -27 -65 -62 -65 -115 0 -56 26 -102 72 -126 95 -51
200 15 200 126 0 106 -116 171 -207 115z m135 -57 c31 -34 30 -96 -3 -128 -54
-55 -145 -16 -145 62 0 91 89 131 148 66z"/>
<path d="M6265 970 c-2 -3 -4 -63 -4 -133 l0 -127 72 0 c84 0 113 12 145 60
34 50 27 120 -17 163 -29 29 -38 32 -112 37 -45 3 -82 3 -84 0z m154 -66 c67
-56 22 -154 -70 -154 l-39 0 0 90 0 90 39 0 c28 0 49 -8 70 -26z"/>
<path d="M6605 971 c-3 -2 -5 -62 -5 -133 l0 -128 25 0 25 0 0 133 c0 127 -1
133 -20 133 -12 0 -23 -2 -25 -5z"/>
<path d="M6770 846 l0 -136 28 0 c26 0 27 1 24 50 -4 45 -2 50 17 50 15 0 31
-16 52 -50 26 -42 36 -50 60 -50 33 0 33 -1 -12 66 l-29 42 25 16 c20 13 25
25 25 56 0 60 -25 80 -99 80 -33 0 -66 3 -75 6 -14 5 -16 -10 -16 -130z m138
56 c5 -33 -15 -52 -54 -52 -33 0 -34 1 -34 41 l0 40 43 -3 c35 -3 43 -7 45
-26z"/>
<path d="M7090 843 l0 -133 85 0 c78 0 85 2 85 20 0 18 -7 20 -60 20 l-60 0 0
35 0 35 50 0 c47 0 50 2 50 25 0 23 -3 25 -50 25 -49 0 -50 1 -50 30 0 30 1
30 55 30 50 0 55 2 55 23 0 21 -4 22 -80 22 l-80 0 0 -132z"/>
<path d="M7434 970 c-11 -4 -33 -22 -47 -40 -36 -42 -38 -121 -4 -171 39 -59
136 -76 192 -34 18 14 18 16 2 32 -13 13 -19 15 -29 5 -22 -22 -86 -15 -113
13 -70 69 9 194 95 151 26 -12 30 -12 45 4 16 17 15 19 -14 34 -32 17 -93 20
-127 6z"/>
<path d="M7680 953 c0 -20 5 -23 40 -23 l40 0 0 -110 0 -110 25 0 25 0 0 110
0 110 41 0 c35 0 40 3 37 21 -3 19 -10 21 -106 22 -100 2 -102 1 -102 -20z"/>
<path d="M7980 844 l0 -134 25 0 25 0 0 133 0 132 -25 1 -25 2 0 -134z"/>
<path d="M8203 960 c-89 -54 -82 -200 11 -244 96 -46 196 17 196 124 0 111
-114 177 -207 120z m135 -56 c29 -33 30 -92 1 -128 -16 -20 -29 -26 -60 -26
-54 0 -89 34 -89 87 0 91 90 132 148 67z"/>
<path d="M8520 843 l0 -133 25 0 c24 0 24 2 27 85 l3 85 63 -85 c49 -66 69
-85 88 -85 l24 0 0 133 c0 132 0 134 -22 133 -22 -1 -23 -6 -28 -89 l-5 -87
-64 88 c-49 67 -70 88 -88 88 -23 0 -23 0 -23 -133z"/>
<path d="M4030 853 c-29 -65 -55 -124 -57 -130 -4 -9 5 -13 25 -13 23 0 31 5
36 25 6 23 11 25 66 25 55 0 62 -2 72 -25 8 -18 19 -25 38 -25 l27 0 -55 130
c-74 173 -80 174 -152 13z m109 -34 c1 -4 -15 -9 -34 -11 -40 -5 -42 2 -19 58
l17 39 18 -40 c9 -22 18 -43 18 -46z"/>
</g>
</svg>
